<svg xmlns="http://www.w3.org/2000/svg" xmlns:xlink="http://www.w3.org/1999/xlink" width="1000" zoomAndPan="magnify" viewBox="0 0 750 749.999995" height="1000" preserveAspectRatio="xMidYMid meet" version="1.0"><defs><clipPath id="86522f70fb"><path d="M 307 133 L 611 133 L 611 430 L 307 430 Z M 307 133 " clip-rule="nonzero"/></clipPath><clipPath id="62bff05faf"><path d="M 410.683594 566.816406 L 178.582031 310.550781 L 402.605469 107.652344 L 634.707031 363.917969 Z M 410.683594 566.816406 " clip-rule="nonzero"/></clipPath><clipPath id="d031a44b1a"><path d="M 419.824219 536.664062 L 209.441406 304.378906 L 413.691406 119.386719 L 624.074219 351.671875 Z M 419.824219 536.664062 " clip-rule="nonzero"/></clipPath><clipPath id="c9b2d4b506"><path d="M 309.277344 393.746094 L 388.140625 152.285156 C 391.175781 142.996094 398.925781 136.023438 408.484375 133.984375 C 418.042969 131.945312 427.964844 135.148438 434.527344 142.394531 L 603.238281 328.667969 C 609.800781 335.914062 612.007812 346.101562 609.035156 355.414062 C 606.0625 364.726562 598.359375 371.75 588.8125 373.851562 L 340.75 428.496094 C 331.289062 430.578125 321.433594 427.433594 314.929688 420.253906 C 308.425781 413.070312 306.269531 402.957031 309.277344 393.746094 Z M 309.277344 393.746094 " clip-rule="nonzero"/></clipPath><clipPath id="f9e01d3ec4"><path d="M 280 158 L 583 158 L 583 455 L 280 455 Z M 280 158 " clip-rule="nonzero"/></clipPath><clipPath id="c064f65506"><path d="M 382.925781 591.957031 L 150.824219 335.691406 L 374.847656 132.789062 L 606.949219 389.054688 Z M 382.925781 591.957031 " clip-rule="nonzero"/></clipPath><clipPath id="82c786e316"><path d="M 392.070312 561.804688 L 181.6875 329.519531 L 385.9375 144.527344 L 596.320312 376.8125 Z M 392.070312 561.804688 " clip-rule="nonzero"/></clipPath><clipPath id="eeb3166615"><path d="M 281.523438 418.882812 L 360.386719 177.425781 C 363.421875 168.132812 371.171875 161.160156 380.730469 159.121094 C 390.289062 157.082031 400.210938 160.285156 406.773438 167.53125 L 575.484375 353.804688 C 582.046875 361.050781 584.253906 371.242188 581.28125 380.550781 C 578.308594 389.863281 570.605469 396.886719 561.058594 398.988281 L 312.996094 453.632812 C 303.53125 455.71875 293.679688 452.570312 287.175781 445.390625 C 280.671875 438.210938 278.515625 428.09375 281.523438 418.882812 Z M 281.523438 418.882812 " clip-rule="nonzero"/></clipPath><clipPath id="665dc9558b"><path d="M 234 200 L 537 200 L 537 497 L 234 497 Z M 234 200 " clip-rule="nonzero"/></clipPath><clipPath id="ebbafa398a"><path d="M 336.835938 633.703125 L 104.734375 377.4375 L 328.757812 174.535156 L 560.859375 430.800781 Z M 336.835938 633.703125 " clip-rule="nonzero"/></clipPath><clipPath id="7aab5d6203"><path d="M 345.976562 603.550781 L 135.59375 371.261719 L 339.84375 186.273438 L 550.226562 418.558594 Z M 345.976562 603.550781 " clip-rule="nonzero"/></clipPath><clipPath id="ed7a898d24"><path d="M 235.429688 460.628906 L 314.292969 219.171875 C 317.328125 209.878906 325.078125 202.90625 334.640625 200.867188 C 344.199219 198.828125 354.121094 202.03125 360.679688 209.277344 L 529.390625 395.550781 C 535.953125 402.796875 538.164062 412.984375 535.191406 422.296875 C 532.21875 431.609375 524.511719 438.632812 514.96875 440.734375 L 266.902344 495.378906 C 257.441406 497.464844 247.589844 494.316406 241.082031 487.136719 C 234.578125 479.953125 232.421875 469.839844 235.429688 460.628906 Z M 235.429688 460.628906 " clip-rule="nonzero"/></clipPath></defs><g clip-path="url(#86522f70fb)"><g clip-path="url(#62bff05faf)"><g clip-path="url(#d031a44b1a)"><g clip-path="url(#c9b2d4b506)"><path stroke-linecap="butt" transform="matrix(-0.503475, -0.55589, 0.55589, -0.503475, 410.681143, 566.816536)" fill="none" stroke-linejoin="miter" d="M 261.799664 54.697344 L 429.835177 348.75733 C 436.298412 360.071143 436.252366 373.971055 429.711893 385.242414 C 423.171421 396.513774 411.125205 403.452041 398.090394 403.451688 L 62.998559 403.452956 C 49.963749 403.452603 37.920531 396.515213 31.378192 385.242188 C 24.835854 373.969163 24.789759 360.070122 31.257977 348.754402 L 199.287931 54.696598 C 205.698531 43.483287 217.627404 36.558201 230.544143 36.557021 C 243.464743 36.559337 255.389162 43.480481 261.799664 54.697344 Z M 261.799664 54.697344 " stroke="#5e17eb" stroke-width="30" stroke-opacity="1" stroke-miterlimit="4"/></g></g></g></g><g clip-path="url(#f9e01d3ec4)"><g clip-path="url(#c064f65506)"><g clip-path="url(#82c786e316)"><g clip-path="url(#eeb3166615)"><path stroke-linecap="butt" transform="matrix(-0.503475, -0.55589, 0.55589, -0.503475, 382.926106, 591.954543)" fill="none" stroke-linejoin="miter" d="M 261.799926 54.699614 L 429.831579 348.756104 C 436.298674 360.073412 436.252628 373.973324 429.712155 385.244684 C 423.171682 396.516043 411.125466 403.454311 398.090656 403.453958 L 62.998821 403.455226 C 49.96401 403.454873 37.916932 396.513986 31.378454 385.244457 C 24.836115 373.971432 24.79002 360.072392 31.258238 348.756672 L 199.288192 54.698868 C 205.698428 43.4782 217.627665 36.56047 230.544405 36.55929 C 243.461144 36.558111 255.389423 43.482751 261.799926 54.699614 Z M 261.799926 54.699614 " stroke="#ff751f" stroke-width="30" stroke-opacity="1" stroke-miterlimit="4"/></g></g></g></g><g clip-path="url(#665dc9558b)"><g clip-path="url(#ebbafa398a)"><g clip-path="url(#7aab5d6203)"><g clip-path="url(#ed7a898d24)"><path stroke-linecap="butt" transform="matrix(-0.503475, -0.55589, 0.55589, -0.503475, 336.834507, 633.700117)" fill="none" stroke-linejoin="miter" d="M 261.801337 54.697023 L 429.83299 348.753513 C 436.300085 360.070822 436.254039 373.970734 429.71007 385.245954 C 423.169597 396.517313 411.123381 403.455581 398.092067 403.451367 L 63.000232 403.452635 C 49.965421 403.452282 37.918707 396.518752 31.376368 385.245727 C 24.83403 373.972702 24.791432 360.069801 31.256153 348.757942 L 199.289604 54.696277 C 205.696343 43.47947 217.62558 36.56174 230.545816 36.5567 C 243.466416 36.559016 255.390835 43.48016 261.801337 54.697023 Z M 261.801337 54.697023 " stroke="#ffde59" stroke-width="30" stroke-opacity="1" stroke-miterlimit="4"/></g></g></g></g></svg>