<svg xmlns="http://www.w3.org/2000/svg" xmlns:xlink="http://www.w3.org/1999/xlink" width="710" zoomAndPan="magnify" viewBox="0 0 532.5 543.749984" height="725" preserveAspectRatio="xMidYMid meet" version="1.0"><defs><clipPath id="b3af9cec93"><path d="M 26 205 L 324 205 L 324 520 L 26 520 Z M 26 205 " clip-rule="nonzero"/></clipPath><clipPath id="6ebac771a9"><path d="M 188.710938 81.125 L 469.914062 296.847656 L 281.097656 542.976562 L -0.105469 327.25 Z M 188.710938 81.125 " clip-rule="nonzero"/></clipPath><clipPath id="b562283b61"><path d="M 188.414062 108.808594 L 443.1875 304.257812 L 267.957031 532.671875 L 13.1875 337.226562 Z M 188.414062 108.808594 " clip-rule="nonzero"/></clipPath><clipPath id="4c6522f48d"><path d="M 322.914062 235.734375 L 287.5 496.007812 C 286.183594 505.683594 279.816406 513.929688 270.785156 517.648438 C 261.757812 521.363281 251.429688 519.996094 243.683594 514.050781 L 37.460938 355.847656 C 29.710938 349.902344 25.714844 340.285156 26.96875 330.601562 C 28.21875 320.917969 34.53125 312.628906 43.535156 308.851562 L 285.753906 207.226562 C 294.679688 203.480469 304.925781 204.804688 312.605469 210.695312 C 320.285156 216.589844 324.222656 226.144531 322.914062 235.734375 Z M 322.914062 235.734375 " clip-rule="nonzero"/></clipPath><clipPath id="326392b222"><path d="M 50 174 L 347 174 L 347 490 L 50 490 Z M 50 174 " clip-rule="nonzero"/></clipPath><clipPath id="7f80db53ca"><path d="M 212.066406 50.683594 L 493.269531 266.40625 L 304.453125 512.535156 L 23.25 296.808594 Z M 212.066406 50.683594 " clip-rule="nonzero"/></clipPath><clipPath id="d1da690929"><path d="M 211.769531 78.367188 L 466.539062 273.8125 L 291.3125 502.230469 L 36.539062 306.785156 Z M 211.769531 78.367188 " clip-rule="nonzero"/></clipPath><clipPath id="fc50fc037e"><path d="M 346.269531 205.292969 L 310.855469 465.566406 C 309.539062 475.242188 303.167969 483.488281 294.140625 487.203125 C 285.109375 490.921875 274.785156 489.550781 267.035156 483.609375 L 60.8125 325.40625 C 53.066406 319.460938 49.070312 309.84375 50.320312 300.160156 C 51.570312 290.472656 57.886719 282.1875 66.890625 278.410156 L 309.105469 176.78125 C 318.03125 173.039062 328.28125 174.363281 335.960938 180.253906 C 343.640625 186.144531 347.574219 195.703125 346.269531 205.292969 Z M 346.269531 205.292969 " clip-rule="nonzero"/></clipPath><clipPath id="111d88d873"><path d="M 88 124 L 386 124 L 386 439 L 88 439 Z M 88 124 " clip-rule="nonzero"/></clipPath><clipPath id="dcb36f4a42"><path d="M 250.847656 0.128906 L 532.050781 215.851562 L 343.234375 461.980469 L 62.03125 246.253906 Z M 250.847656 0.128906 " clip-rule="nonzero"/></clipPath><clipPath id="e1089f4386"><path d="M 250.550781 27.8125 L 505.324219 223.261719 L 330.09375 451.675781 L 75.320312 256.230469 Z M 250.550781 27.8125 " clip-rule="nonzero"/></clipPath><clipPath id="d2f90730ae"><path d="M 385.050781 154.738281 L 349.636719 415.011719 C 348.320312 424.691406 341.953125 432.933594 332.921875 436.652344 C 323.894531 440.367188 313.566406 439 305.820312 433.054688 L 99.597656 274.851562 C 91.847656 268.90625 87.851562 259.289062 89.101562 249.605469 C 90.355469 239.921875 96.667969 231.636719 105.671875 227.855469 L 347.886719 126.230469 C 356.8125 122.484375 367.0625 123.808594 374.742188 129.699219 C 382.421875 135.59375 386.355469 145.148438 385.050781 154.738281 Z M 385.050781 154.738281 " clip-rule="nonzero"/></clipPath></defs><g clip-path="url(#b3af9cec93)"><g clip-path="url(#6ebac771a9)"><g clip-path="url(#b562283b61)"><g clip-path="url(#4c6522f48d)"><path stroke-linecap="butt" transform="matrix(0.594508, 0.456075, -0.456075, 0.594508, 188.716183, 81.128697)" fill="none" stroke-linejoin="miter" d="M 267.690702 54.698235 L 441.617484 359.066864 C 448.083425 370.3818 448.039774 384.285726 441.497504 395.559775 C 434.956198 406.826514 422.90925 413.768598 409.877469 413.765504 L 62.998159 413.765428 C 49.962242 413.765508 37.918545 406.828088 31.380078 395.555649 C 24.837474 384.286384 24.788312 370.381383 31.254031 359.067502 L 205.184603 54.697688 C 211.592981 43.480359 223.518162 36.559413 236.435202 36.558542 C 249.355416 36.561807 261.286298 43.480643 267.690702 54.698235 Z M 267.690702 54.698235 " stroke="#5e17eb" stroke-width="30" stroke-opacity="1" stroke-miterlimit="4"/></g></g></g></g><g clip-path="url(#326392b222)"><g clip-path="url(#7f80db53ca)"><g clip-path="url(#d1da690929)"><g clip-path="url(#fc50fc037e)"><path stroke-linecap="butt" transform="matrix(0.594508, 0.456075, -0.456075, 0.594508, 212.069702, 50.686635)" fill="none" stroke-linejoin="miter" d="M 267.693299 54.697345 L 441.620082 359.065974 C 448.086022 370.38091 448.038235 384.288009 441.496928 395.554749 C 434.954659 406.828798 422.908674 413.763571 409.87593 413.767787 L 62.99662 413.767712 C 49.964839 413.764618 37.921142 406.827198 31.378539 395.557933 C 24.832762 384.284531 24.790909 370.380493 31.256628 359.066612 L 205.179891 54.695835 C 211.591442 43.482643 223.520759 36.558523 236.4378 36.557652 C 249.35484 36.556781 261.284759 43.482927 267.693299 54.697345 Z M 267.693299 54.697345 " stroke="#ff751f" stroke-width="30" stroke-opacity="1" stroke-miterlimit="4"/></g></g></g></g><g clip-path="url(#111d88d873)"><g clip-path="url(#dcb36f4a42)"><g clip-path="url(#e1089f4386)"><g clip-path="url(#d2f90730ae)"><path stroke-linecap="butt" transform="matrix(0.594508, 0.456075, -0.456075, 0.594508, 250.851908, 0.132831)" fill="none" stroke-linejoin="miter" d="M 267.69157 54.697187 L 441.618352 359.065815 C 448.084293 370.380752 448.040642 384.284677 441.498373 395.558726 C 434.957066 406.825466 422.910118 413.767549 409.878337 413.764456 L 62.999027 413.76438 C 49.96311 413.76446 37.919413 406.827039 31.376809 395.557774 C 24.838342 384.285335 24.792353 370.384471 31.254899 359.066453 L 205.181335 54.699812 C 211.589713 43.482484 223.51903 36.558364 236.436071 36.557493 C 249.356284 36.560758 261.28303 43.482768 267.69157 54.697187 Z M 267.69157 54.697187 " stroke="#ffde59" stroke-width="30" stroke-opacity="1" stroke-miterlimit="4"/></g></g></g></g></svg>